<?xml version="1.0" encoding="UTF-8"?>
<svg viewBox="4 2 44 46.2" xmlns="http://www.w3.org/2000/svg">
<path d="m43.6 13c0-1.2157-0.98187-2.2002-2.1892-2.2002-0.010807 1.2152-0.98731 2.2-2.2108 2.2-1.215 0-2.2-0.97618-2.2-2.1996l-4.4-4.2439e-4c0 1.2152-0.9765 2.2-2.2 2.2-1.215 0-2.2-0.97618-2.2-2.1996l-4.4-4.2439e-4c0 1.2152-0.9765 2.2-2.2 2.2-1.215 0-2.2-0.97618-2.2-2.1996l-4.4-4.2439e-4c0 1.2152-0.9765 2.2-2.2 2.2-1.215 0-2.2-0.97618-2.2-2.1996-1.2194-4.2439e-4 -2.2 0.98285-2.2 2.1998v4.3998h35.2v-4.3998zm-35.2 8.7998v19.8c0 1.2157 0.98187 2.2002 2.1892 2.2002h30.822c1.2086 0 2.1892-0.98327 2.1892-2.2002v-19.8h-35.2zm39.6-8.7998v28.6c0 3.6443-2.9479 6.6002-6.5892 6.6002h-30.822c-3.64 0-6.5892-2.9571-6.5892-6.6002v-28.6c0-3.6443 2.9479-6.6002 6.5892-6.6002l0.010803-2.2004c0-1.2148 0.9765-2.1996 2.2-2.1996 1.215 0 2.2 0.97618 2.2 2.1996v2.2004h4.4v-2.2004c0-1.2148 0.9765-2.1996 2.2-2.1996 1.215 0 2.2 0.97618 2.2 2.1996v2.2004h4.4v-2.2004c0-1.2148 0.9765-2.1996 2.2-2.1996 1.215 0 2.2 0.97618 2.2 2.1996v2.2004h4.4v-2.2004c0-1.2148 0.9765-2.1996 2.2-2.1996 1.215 0 2.2 0.97618 2.2 2.1996v2.2004c3.6508 0 6.6 2.9571 6.6 6.6002z"></path>
</svg>
