<?xml version="1.0" encoding="UTF-8"?>
<svg viewBox="6 2 41.143 48" xmlns="http://www.w3.org/2000/svg">
<path d="m35.714 2c1.2624 0 2.2857 1.0134 2.2857 2.2835l4.5694 0.0021701c2.5265 0 4.5734 2.041 4.5734 4.5711v36.572c0 2.5266-2.0417 4.5711-4.5734 4.5711h-31.996c-2.5265 0-4.5734-2.041-4.5734-4.5711v-36.572c0-2.5266 2.0417-4.5711 4.5734-4.5711h4.5694c0-1.2633 1.0145-2.2857 2.2857-2.2857 1.2624 0 2.2857 1.0134 2.2857 2.2835l4.5714 0.0021701c0-1.2633 1.0145-2.2857 2.2857-2.2857 1.2624 0 2.2857 1.0134 2.2857 2.2835l4.5714 0.0021701c0-1.2633 1.0145-2.2857 2.2857-2.2857zm-6.8571 6.8559c0 1.2646-1.0145 2.287-2.2857 2.287-1.2624 0-2.2857-1.0134-2.2857-2.2835-1.5749-0.0037708-3.1196-0.00383-4.5714-0.0038576 0 1.265-1.0145 2.2874-2.2857 2.2874-1.2624 0-2.2857-1.0134-2.2857-2.2835-2.7604-0.0036707-4.5714-0.0025043-4.5714-0.0025043l0.0019922 36.572 31.998 3.3569e-4 -0.0019913-36.572s-1.8102-2.0409e-4 -4.5694-4.7112e-4c0 1.2638-1.0145 2.2862-2.2857 2.2862-1.2624 0-2.2857-1.0134-2.2857-2.2835-1.4518-0.0031786-2.9965-0.0033007-4.5714-0.0034113zm-2.2857 12.573c0-1.2624 1.0308-2.2857 2.2955-2.2857h9.1234c1.2677 0 2.2955 1.0145 2.2955 2.2857 0 1.2624-1.0308 2.2857-2.2955 2.2857h-9.1234c-1.2677 0-2.2955-1.0145-2.2955-2.2857zm0 12.571c0-1.2624 1.0308-2.2857 2.2955-2.2857h9.1234c1.2677 0 2.2955 1.0146 2.2955 2.2857 0 1.2624-1.0308 2.2857-2.2955 2.2857h-9.1234c-1.2677 0-2.2955-1.0145-2.2955-2.2857zm-10.759-10.955l-2.2857-2.2857c-0.89263-0.89263-0.89263-2.3399 0-3.2325 0.89263-0.89263 2.3399-0.89263 3.2325 0l0.66996 0.66996 2.9547-2.9557c0.89263-0.89263 2.3399-0.89263 3.2325 0 0.89263 0.89263 0.89263 2.3399 0 3.2325l-4.5714 4.5714c-0.89263 0.89263-2.3399 0.89263-3.2325 0zm0 12.571l-2.2857-2.2857c-0.89263-0.89263-0.89263-2.3399 0-3.2325 0.89263-0.89263 2.3399-0.89263 3.2325 0l0.6739 0.6739 2.9508-2.9596c0.89263-0.89263 2.3399-0.89263 3.2325 0 0.89263 0.89263 0.89263 2.3399 0 3.2325l-4.5714 4.5714c-0.89263 0.89263-2.3399 0.89263-3.2325 0z"></path>
</svg>
