<?xml version="1.0" encoding="UTF-8"?>
<svg viewBox="4 4 48 48" xmlns="http://www.w3.org/2000/svg">
<path d="m11.203 25.6c1.3241 0 2.3975 1.0653 2.3975 2.4 0 1.3255-1.0779 2.4-2.3975 2.4h-2.254c1.083 8.6849 7.9665 15.568 16.651 16.651v-2.254c0-1.3241 1.0653-2.3975 2.4-2.3975 1.3255 0 2.4 1.0779 2.4 2.3975v2.254c8.6849-1.083 15.568-7.9665 16.651-16.651h-2.254c-1.3241 0-2.3975-1.0653-2.3975-2.4 0-1.3255 1.0779-2.4 2.3975-2.4h2.254c-1.083-8.6849-7.9665-15.568-16.651-16.651v2.254c0 1.3241-1.0653 2.3975-2.4 2.3975-1.3255 0-2.4-1.0779-2.4-2.3975v-2.254c-8.6849 1.083-15.568 7.9665-16.651 16.651h2.254zm16.797 26.4c-13.255 0-24-10.745-24-24 0-13.255 10.745-24 24-24 13.255 0 24 10.745 24 24 0 13.255-10.745 24-24 24zm-6.3299-28.845c0.18221-0.63774 0.85114-1.3036 1.4847-1.4847l13.345-3.8127c1.2707-0.36305 2.0077 0.36827 1.6434 1.6434l-3.8127 13.345c-0.18221 0.63774-0.85114 1.3036-1.4847 1.4847l-13.345 3.8127c-1.2707 0.36304-2.0077-0.36827-1.6434-1.6434l3.8127-13.345zm4.2151 2.7229l4.228 4.2538 1.6959-5.9357-5.9239 1.6818z"></path>
</svg>
