<svg xmlns="http://www.w3.org/2000/svg" viewBox="0 0 42 42"><defs><style>.cls-1{fill:#fff;}.cls-2{fill:#2b8da5;}</style></defs><g id="Layer_2" data-name="Layer 2"><g id="Layer_1-2" data-name="Layer 1"><g id="Instagram"><circle id="Icon_BG" data-name="Icon BG" class="cls-1" cx="21" cy="21" r="21"/><path id="Instagram-2" class="cls-2" d="M17.3,30A5,5,0,0,1,12,24.7V17.26A5,5,0,0,1,16.66,12h8.08a5.16,5.16,0,0,1,3.81,1.49A5.23,5.23,0,0,1,30,17.26v7.48a5.15,5.15,0,0,1-1.49,3.84A5.31,5.31,0,0,1,24.7,30ZM14.65,14.61a3.66,3.66,0,0,0-1,2.65V24.7a3.67,3.67,0,0,0,1,2.69,3.79,3.79,0,0,0,2.65.94h7.4a3.79,3.79,0,0,0,2.65-.94,3.56,3.56,0,0,0,1-2.65V17.26a3.76,3.76,0,0,0-1-2.61,3.6,3.6,0,0,0-2.65-1H17.3a3.68,3.68,0,0,0-2.65.94ZM16.36,21A4.65,4.65,0,1,1,21,25.61,4.64,4.64,0,0,1,16.36,21v0ZM18,21a3,3,0,1,0,3-3,3,3,0,0,0-3,3Zm6.75-4.75a1,1,0,0,1,1-1.05h0a1,1,0,0,1,1.05,1.05h0a1,1,0,0,1-1.05,1.05h0a1.06,1.06,0,0,1-1.06-1.05h0Z"/></g></g></g></svg>