<svg xmlns="http://www.w3.org/2000/svg" viewBox="0 0 42 42"><defs><style>.cls-1{fill:#fff;}.cls-2{fill:#2b8da5;}</style></defs><g id="Layer_2" data-name="Layer 2"><g id="Layer_1-2" data-name="Layer 1"><g id="Twitter"><circle id="Icon_BG" data-name="Icon BG" class="cls-1" cx="21" cy="21" r="21"/><path id="Twitter-2" class="cls-2" d="M30,15.73a7.1,7.1,0,0,1-2.12.58,3.65,3.65,0,0,0,1.62-2,7,7,0,0,1-2.34.9,3.7,3.7,0,0,0-6.29,3.37,10.46,10.46,0,0,1-7.62-3.87,3.7,3.7,0,0,0,1.15,4.94,3.62,3.62,0,0,1-1.67-.47v.05a3.68,3.68,0,0,0,3,3.62,3.62,3.62,0,0,1-1,.13,4,4,0,0,1-.69-.06,3.7,3.7,0,0,0,3.45,2.56A7.48,7.48,0,0,1,12,27a10.5,10.5,0,0,0,16.17-8.85c0-.16,0-.32,0-.48A7.43,7.43,0,0,0,30,15.73Z"/></g></g></g></svg>