<?xml version="1.0" encoding="UTF-8"?>
<svg viewBox="2 4 44 40" xmlns="http://www.w3.org/2000/svg">
<path d="m34 16h-4v4h4v-4zm-4 8v16h4v-16h-4zm12-16h-4v24h4v-24zm-4 28v4h4v-4h-4zm-32-20v24h16v-24h-4v6.0456c0 2.2113-1.211 2.6871-2.7124 1.0544l-1.2876-1.4003-1.2876 1.4003c-1.498 1.629-2.7124 1.1625-2.7124-1.0544v-6.0456h-4zm-1.9951 28c-1.1073 0-2.0049-0.88926-2.0049-2.0017v-27.997c0-1.1055 0.89703-2.0017 2.0049-2.0017h17.995v-2.0003c0-1.1044 0.88671-1.9997 1.9981-1.9997h4.0038c1.1035 0 1.9981 0.88989 1.9981 1.9997v2.0003h4v-6.0027c0-1.1031 0.90195-1.9973 2.0085-1.9973h7.9829c1.1093 0 2.0085 0.89154 2.0085 1.9973v36.005c0 1.1031-0.90195 1.9973-2.0085 1.9973h-7.9829-8-4.0104-19.993z"></path>
</svg>
