<?xml version="1.0" encoding="UTF-8"?>
<svg viewBox="4 6 48 44.03" xmlns="http://www.w3.org/2000/svg">
<path d="m8.8 20.4c0 7.4981 7.3456 16.561 19.214 24.32 11.868-7.7586 19.186-16.629 19.186-24.32 0-5.3019-4.2981-9.6-9.6-9.6-2.3989 0-4.6487 0.87691-6.3988 2.4433l-2.3095 2.067c-0.49248 0.44078-1.2842 0.44678-1.7834 0l-2.3095-2.067c-1.7501-1.5664-3.9999-2.4433-6.3988-2.4433-5.3019 0-9.6 4.2981-9.6 9.6zm19.2-10.733c2.5476-2.2802 5.9119-3.6667 9.6-3.6667 7.9529 0 14.4 6.4471 14.4 14.4 0 11.607-12.014 22.8-22.981 29.367-0.55734 0.34689-1.4722 0.3516-2.0311 0.0047569-11.039-6.5455-22.988-17.764-22.988-29.372 0-7.9529 6.4471-14.4 14.4-14.4 3.6881 0 7.0524 1.3865 9.6 3.6667z"></path>
</svg>
