<?xml version="1.0" encoding="UTF-8"?>
<svg viewBox="6 5 36.161 38.383" xmlns="http://www.w3.org/2000/svg">
<path d="m19.286 26.637c-1.2588-0.19328-2.5897 0.19486-3.5592 1.1644-1.2708 1.2708-3.2394 4.4633-4.4477 7.4209-0.63548 1.5555-1.1102 3.9834-1.1102 3.9834s2.4366-0.46604 3.9921-1.1015c2.9577-1.2083 6.1501-3.1769 7.4209-4.4477 1.1903-1.1903 1.5043-2.9249 0.94212-4.4024l-2.4073 2.4073c-0.80765 0.80765-2.1121 0.81267-2.9262-0.0013905-0.80842-0.80842-0.81481-2.1127-0.0013885-2.9262l2.0968-2.0968zm6.2214-14.429c-0.36886 1.3812-0.011484 2.9161 1.0721 3.9997 1.2708 1.2708 4.4633 3.2394 7.4209 4.4477 1.5555 0.63548 3.9988 1.0668 3.9988 1.0668s-0.4814-2.3932-1.1169-3.9487c-1.2083-2.9577-3.1769-6.1501-4.4477-7.4209-1.0836-1.0836-2.6184-1.441-3.9997-1.0721l1.6063 1.6063c0.80765 0.80765 0.81267 2.1121-0.0013885 2.9262-0.80842 0.80842-2.1127 0.81481-2.9262 0.0013876l-1.6063-1.6063zm-12.708 12.666c3.2337-3.2337 8.4765-3.2337 11.71 0 3.2337 3.2337 3.2337 8.4765 0 11.71-3.2337 3.2337-14.332 9.0888-17.565 5.8551-3.2337-3.2337 2.6214-14.332 5.8551-17.565zm10.853-5.7385c-3.2337-3.2337-3.2337-8.4765 0-11.71 3.2337-3.2337 8.4765-3.2337 11.71 0 3.2337 3.2337 9.0888 14.332 5.8551 17.565-3.2337 3.2337-14.332-2.6214-17.565-5.8551zm-15.939 0.26638c-1.2904-1.2904 1.0461-5.719 2.3365-7.0094 1.2904-1.2904 3.3825-1.2904 4.6729 0 1.2904 1.2904 1.2904 3.3825 0 4.6729-1.2904 1.2904-5.719 3.6269-7.0094 2.3365zm30.815 19.46c-1.2904 1.2904-5.719-1.0461-7.0094-2.3365-1.2904-1.2904-1.2904-3.3825 0-4.6729 1.2904-1.2904 3.3825-1.2904 4.6729 0 1.2904 1.2904 3.6269 5.719 2.3365 7.0094z"></path>
</svg>
