<?xml version="1.0" encoding="UTF-8"?>
<svg class="Combined-Shape_kc" viewBox="2 4 44 40" xmlns="http://www.w3.org/2000/svg">
<path d="m14 12v-2c0-3.3134 2.6839-6 5.9962-6h8.0076c3.3108 0 5.9962 2.69 5.9962 6v2h4.0008c4.4197 0 7.9992 3.5821 7.9992 8.0067v20.002c0 2.2062-1.7888 3.9912-3.9973 3.9912h-36.002c-2.2038 0-4.0003-1.792-4.0003-4.0024v-19.991c0-4.4212 3.5813-8.0067 7.9992-8.0067h4.0008zm4 0h12v-2c0-1.1024-0.89605-2-1.9962-2h-8.0076c-1.1022 0-1.9962 0.89487-1.9962 2v2zm8 14h2.9941c1.1078 0 2.0059 0.88773 2.0059 2 0 1.1046-0.89706 2-2.0059 2h-2.9941v2.9941c0 1.1078-0.88773 2.0059-2 2.0059-1.1046 0-2-0.89706-2-2.0059v-2.9941h-2.9941c-1.1078 0-2.0059-0.88773-2.0059-2 0-1.1046 0.89706-2 2.0059-2h2.9941v-2.9941c0-1.1078 0.88773-2.0059 2-2.0059 1.1046 0 2 0.89706 2 2.0059v2.9941zm-12-10v24.001c5.9544 8.2397e-4 14.046 0.0021019 20 0.0036621v-24.005h-20zm24 24.006c2.4529 8.9645e-4 4 0.0018616 4 0.0028687v-20.002c0-2.2161-1.7893-4.0067-3.9992-4.0067l-7.782e-4 24.006zm-32-19.999s0.0016274 19.993-0.0027084 19.993c0 0 1.5483 1.6785e-4 4.0027 4.7684e-4v-24c-2.2085 0-4 1.7936-4 4.0067z"></path>
</svg>
