<svg xmlns="http://www.w3.org/2000/svg" viewBox="0 0 195.07 42"><defs><style>.cls-1{fill:#bac8d8;}.cls-2{fill:#fff;}.cls-3{fill:#6797b7;}.cls-4{fill:#005f8d;}</style></defs><g id="Layer_2" data-name="Layer 2"><g id="Layer_1-2" data-name="Layer 1"><g id="Logo_-_Light" data-name="Logo - Light"><path id="Path_1081" data-name="Path 1081" class="cls-1" d="M3.58,30.09s-.27,3.32,1.47,3.45a7,7,0,0,0,5-1.73S12.22,42.5,37.28,42a65.55,65.55,0,0,0,12.1-1.18V4.48A4.48,4.48,0,0,0,44.9,0H4.48A4.49,4.49,0,0,0,0,4.48H0V31.13c1.75-.48,3.58-1,3.58-1"/><path id="Path_1082" data-name="Path 1082" class="cls-2" d="M49.54,31.49a2.23,2.23,0,0,0-.16-.43Z"/><path id="Path_1083" data-name="Path 1083" class="cls-2" d="M48.89,5.68c-4.92,2.26-21,5-21,5v2.56l.29,0c2.66.46,16.28,2.85,20.74,4.89Z"/><path id="Path_1084" data-name="Path 1084" class="cls-2" d="M.47,18.13c4.53-2,18.1-4.41,20.76-4.87l.28,0V10.69S5.4,8,.48,5.71Z"/><path id="Path_1085" data-name="Path 1085" class="cls-3" d="M24.59,18.6a32.43,32.43,0,0,0,4,2l-.35-5.74,0-.5H28c-2.24,0-4.55,0-6.8-.14L21,17.27a11.43,11.43,0,0,1,3.59,1.33"/><path id="Path_1086" data-name="Path 1086" class="cls-4" d="M28.82,14.37A.33.33,0,0,0,28.5,14h0a.36.36,0,0,0,0-.14.5.5,0,0,0-.4-.51V9.51a3.7,3.7,0,0,0-2.74-3.72h0s.05,0,.05-.07,0-.06-.05-.07H25l-.25-3.46-.24,3.46H24a.08.08,0,0,0-.05.07s0,.07.05.07h0a3.72,3.72,0,0,0-2.75,3.72v3.87a.5.5,0,0,0-.4.51A.78.78,0,0,0,21,14h-.06a.34.34,0,0,0-.32.36.35.35,0,0,0,.32.33h7.6a.34.34,0,0,0,.33-.35h0m-6.2-1H21.53V10.51c0-.47.25-.84.55-.84s.54.37.54.84Zm1.9,0H23V10.51a.75.75,0,0,1,.68-.82.76.76,0,0,1,.82.68v3Zm1.9,0h-1.5V10.51a.75.75,0,0,1,1.5-.14v3Zm1.43,0H26.77V10.51c0-.47.24-.84.54-.84s.55.37.55.84Z"/><path id="Path_1087" data-name="Path 1087" class="cls-4" d="M28.11,41.61l-.05-1.77c0-.33.17-.6.38-.6s.39.27.39.6l.05,1.85,1,.09L29.54,36,29,26.55l-.5-8.34a3.38,3.38,0,0,0-3-1.86c-3.06-.23-4-.71-4.27-1.35l-.51,8.49-.54,9-.44,7.27a38.71,38.71,0,0,0,8.45,1.82M21.48,19.72c0-.24.12-.44.28-.44s.28.2.28.44l0,1.47h-.56Z"/><path id="Path_1088" data-name="Path 1088" class="cls-3" d="M29.59,36.92A6.17,6.17,0,0,0,26,35.63c-3.32-.24-5.08-.67-6-1.22l.12-1.89.52-8.77c.83.48,2.37.85,5.25,1.06a5.56,5.56,0,0,1,3.05,1l0,.72.57,9.4Z"/><path id="Path_1089" data-name="Path 1089" class="cls-1" d="M59.25,10c-.08-2.07-.17-4.19-.27-6.34l1.23.17a9.24,9.24,0,0,0,2.35,0l1.22-.17c-.1,2.15-.19,4.27-.27,6.34s-.12,4.18-.12,6.34c0,4.11,0,7.68,0,10.7s.06,5.72.1,8.1c2.31,0,4.53,0,6.65-.07a65.4,65.4,0,0,0,6.86-.57A5.66,5.66,0,0,0,76.8,36a4.54,4.54,0,0,0,.25,1.32c-1.5-.06-3-.1-4.5-.1h-9c-1.45,0-3,0-4.53.1.1-2,.19-4.08.27-6.16s.12-4.22.12-6.37V16.32c0-2.15,0-4.27-.12-6.34"/><path id="Path_1090" data-name="Path 1090" class="cls-1" d="M83.73,10c-.08-2.07-.17-4.19-.27-6.34l1.22.17a9.24,9.24,0,0,0,2.35,0l1.23-.17c-.1,2.15-.19,4.27-.27,6.34s-.12,4.18-.13,6.34v8.42c0,2.15,0,4.27.13,6.36s.17,4.15.27,6.17c-.75-.07-1.55-.1-2.4-.1s-1.65,0-2.4.1c.1-2,.18-4.08.27-6.17s.12-4.21.12-6.36V16.32q0-3.24-.12-6.34"/><path id="Path_1091" data-name="Path 1091" class="cls-1" d="M123.67,7.85a12.87,12.87,0,0,0-2.44-1.54,15.94,15.94,0,0,0-3-1.08,14.2,14.2,0,0,0-3.5-.41,16.69,16.69,0,0,0-5.65.92,12.18,12.18,0,0,0-4.56,2.87,13.4,13.4,0,0,0-3,4.9A22.34,22.34,0,0,0,101.38,27a13,13,0,0,0,2.86,4.87,12.76,12.76,0,0,0,4.6,3.06A16.52,16.52,0,0,0,115,36c.69,0,1.41,0,2.16-.1a21.6,21.6,0,0,0,2.18-.29,14.64,14.64,0,0,0,2-.49,7.93,7.93,0,0,0,1.55-.68c0-1,.05-2,.07-2.94s0-2,0-3,0-2.28-.07-3.42-.11-2.24-.17-3.28a11.57,11.57,0,0,0,2.35.24c.36,0,.72,0,1.08-.05a5,5,0,0,0,1-.2c-.06.75-.11,1.94-.14,3.55s0,3.75,0,6.39c0,.65,0,1.31,0,2s0,1.33,0,2a26.19,26.19,0,0,1-2.57.8,30.83,30.83,0,0,1-3.28.69c-1.16.18-2.32.34-3.48.49a25.54,25.54,0,0,1-3.16.22,27.08,27.08,0,0,1-7.85-1.06,15.27,15.27,0,0,1-6-3.25,14.64,14.64,0,0,1-3.77-5.48,20.31,20.31,0,0,1-1.32-7.59A18.87,18.87,0,0,1,97,13.11a15.2,15.2,0,0,1,3.87-5.51,16.63,16.63,0,0,1,6-3.42A24.93,24.93,0,0,1,114.74,3a32.83,32.83,0,0,1,4.43.27,22.72,22.72,0,0,1,6,1.64q1.13.5,2,.93a8.65,8.65,0,0,0-.71,1.76,10.7,10.7,0,0,0-.41,2h-.59a12.25,12.25,0,0,0-1.84-1.76"/><path id="Path_1092" data-name="Path 1092" class="cls-1" d="M159.9,10c-.08-2.07-.17-4.19-.26-6.34l1.22.17a9.24,9.24,0,0,0,2.35,0l1.22-.17c-.09,2.15-.18,4.27-.26,6.34s-.13,4.18-.13,6.34v8.42q0,3.23.13,6.36t.26,6.17c-.75-.07-1.55-.1-2.4-.1s-1.64,0-2.4.1q.15-3,.27-6.17t.12-6.36V20.33l-5.11-.07c-1.65,0-3.35,0-5.12,0s-3.46,0-5.11,0-3.36,0-5.12.07v4.41q0,3.23.12,6.36t.27,6.17c-.75-.07-1.55-.1-2.4-.1s-1.65,0-2.4.1q.15-3,.27-6.17t.12-6.36V16.32q0-3.24-.12-6.34c-.08-2.07-.17-4.19-.27-6.34.43.07.84.12,1.23.17a9.24,9.24,0,0,0,2.35,0L140,3.64c-.1,2.15-.19,4.27-.27,6.34s-.12,4.18-.12,6.34V18l5.12.1c1.64,0,3.35.05,5.11.05s3.47,0,5.12-.05L160,18V16.32q0-3.24-.12-6.34"/><path id="Path_1093" data-name="Path 1093" class="cls-1" d="M180.29,6.19c-.85,0-1.74,0-2.67,0s-1.86,0-2.79.1-1.83.1-2.69.17-1.64.15-2.33.25a6,6,0,0,0,.25-1.57,7.1,7.1,0,0,0-.25-1.52c2.16.07,4.26.12,6.32.17s4.16.07,6.31.08,4.26,0,6.32-.08,4.16-.1,6.31-.17a6.94,6.94,0,0,0-.24,1.57,6.1,6.1,0,0,0,.24,1.52c-.68-.1-1.46-.19-2.32-.25l-2.69-.17c-.93,0-1.86-.08-2.79-.1s-1.82,0-2.67,0c-.1,3.36-.15,6.73-.15,10.13v8.42q0,3.23.12,6.36t.27,6.17c-.75-.07-1.55-.1-2.4-.1s-1.65,0-2.4.1q.15-3,.27-6.17t.12-6.36V16.32c0-3.4-.05-6.77-.14-10.13"/></g></g></g></svg>