<?xml version="1.0" encoding="UTF-8"?>
<svg viewBox="2 4 51.58 48" xmlns="http://www.w3.org/2000/svg">
<path d="m13.717 35.618c-6.4683 0-11.717-5.256-11.717-11.723 0-6.471 5.2524-11.723 11.717-11.723h20.397l9.1386-7.2629c2.5558-2.0089 5.6379-0.51026 5.6379 2.7366v11.56c2.5897 0 4.6891 2.0994 4.6891 4.6891 0 2.5897-2.0994 4.6891-4.6891 4.6891v11.607c0 3.2483-3.0809 4.7492-5.6296 2.7358l-9.2723-7.3091h-3.2045l2.7668 11.197c0.67622 2.7367-1.2313 5.1848-4.0573 5.1848h-7.0345c-2.372 0-4.6145-1.7594-5.183-4.06l-3.0448-12.322h-0.51435zm8.1113 11.197c0.05164 0.20897 0.41718 0.49576 0.63086 0.52524h6.3915l-2.8966-11.723h-6.8926l2.7668 11.197zm-4.5857-20.576c-1.2966 0-2.3478-1.0407-2.3478-2.3445 0-1.2949 1.0475-2.3445 2.3478-2.3445h8.2026v-4.6891h-11.728c-3.8752 0-7.0281 3.1525-7.0281 7.0336 0 3.8784 3.1509 7.0336 7.0281 7.0336h11.728v-4.6891h-8.2026zm26.959-16.064l-7.9293 6.1842c-0.41313 0.32472-0.92336 0.50124-1.4488 0.50124h-4.6891v14.067h4.6891c0.52745 0 1.0395 0.17785 1.4534 0.50482l7.9296 6.2644-0.0023956-13.65c-0.0016251-0.050705-0.0024414-0.10161-0.0024414-0.15271 0-0.050537 8.0109e-4 -0.10089 0.002388-0.15103l-0.002388-13.568z"></path>
</svg>
