<?xml version="1.0" encoding="UTF-8"?>
<svg viewBox="13 4 24.1 44.032" xmlns="http://www.w3.org/2000/svg">
<path d="m18.726 8.1013c-0.87722-2.2709 0.38136-4.1071 2.8141-4.1013l6.9997 0.016747c2.4314 0.0058169 3.6948 1.8437 2.8185 4.1136l-3.5093 9.0903h1.6112c4.8568 0 8.2366 3.9023 7.5504 8.7058l-1.9143 13.4c-0.68687 4.8081-5.1949 8.7058-10.047 8.7058-4.8619 0-9.3607-3.9023-10.047-8.7058l-1.9143-13.4c-0.68687-4.8081 2.6959-8.7058 7.5504-8.7058h1.6101l-3.5226-9.1193zm8.5221 31.127c-1.2143 0-2.1987-0.97687-2.1987-2.2008 0-1.2155 0.97574-2.2008 2.1987-2.2008h4.0446l0.6288-4.4016h-4.6718c-1.2152 0-2.2004-0.97687-2.2004-2.2008 0-1.2155 0.97654-2.2008 2.2004-2.2008h5.3006l0.10286-0.71998c0.30769-2.1538-1.0168-3.6817-3.193-3.6817h-8.8216c-2.1769 0-3.5009 1.5263-3.193 3.6817l1.9143 13.4c0.37658 2.6361 3.0192 4.9266 5.6896 4.9266 2.4876 0 4.958-1.9947 5.5838-4.4016h-3.3851z"></path>
</svg>
