<?xml version="1.0" encoding="utf-8"?>
<!-- Generator: Adobe Illustrator 25.3.0, SVG Export Plug-In . SVG Version: 6.00 Build 0)  -->
<svg version="1.1" id="Layer_1" xmlns="http://www.w3.org/2000/svg" xmlns:xlink="http://www.w3.org/1999/xlink" x="0px" y="0px"
	 viewBox="0 0 24 24" style="enable-background:new 0 0 24 24;" xml:space="preserve">
<style type="text/css">
	.st0{opacity:0.11;fill:#FFFFFF;enable-background:new    ;}
	.st1{fill:#FDF8EB;}
</style>
<g id="Layer_2_1_">
	<g id="Instagram">
		<circle id="Icon_BG" class="st0" cx="12" cy="12" r="12"/>
		<path id="Instagram-2" class="st1" d="M9.9,16.6c-0.7,0-1.5-0.2-2-0.7c-0.5-0.5-0.8-1.3-0.8-2V10C7,8.6,8.1,7.4,9.5,7.3
			c0,0,0,0,0.1,0h4.2c0.7,0,1.5,0.2,2,0.8c0.5,0.5,0.8,1.3,0.8,2v3.9c0,0.7-0.2,1.5-0.8,2c-0.5,0.5-1.3,0.8-2,0.7L9.9,16.6z
			 M8.5,8.6C8.1,8.9,8,9.5,8,10v3.9c0,0.5,0.2,1,0.5,1.4c0.4,0.3,0.9,0.5,1.4,0.5h3.8c0.5,0,1-0.1,1.4-0.5c0.4-0.4,0.6-0.9,0.6-1.4
			V10c0-0.5-0.2-1-0.5-1.4c-0.4-0.3-0.9-0.5-1.4-0.5H9.9C9.4,8.1,8.9,8.3,8.5,8.6L8.5,8.6z M9.4,11.8c0-1.3,1.1-2.4,2.4-2.4
			s2.4,1.1,2.4,2.4c0,1.3-1.1,2.4-2.4,2.4C10.5,14.3,9.4,13.2,9.4,11.8C9.4,11.9,9.4,11.9,9.4,11.8L9.4,11.8z M10.2,11.8
			c0,0.9,0.7,1.5,1.5,1.5s1.5-0.7,1.5-1.5s-0.7-1.5-1.5-1.5l0,0C10.9,10.3,10.2,11,10.2,11.8z M13.7,9.4c0-0.3,0.2-0.5,0.5-0.5
			c0.3,0,0.5,0.2,0.5,0.5c0,0.3-0.2,0.5-0.5,0.5c0,0,0,0,0,0C14,9.9,13.7,9.7,13.7,9.4z"/>
	</g>
</g>
</svg>
