<?xml version="1.0" encoding="utf-8"?>
<!-- Generator: Adobe Illustrator 25.3.0, SVG Export Plug-In . SVG Version: 6.00 Build 0)  -->
<svg version="1.1" id="Layer_1" xmlns="http://www.w3.org/2000/svg" xmlns:xlink="http://www.w3.org/1999/xlink" x="0px" y="0px"
	 viewBox="0 0 24 24" style="enable-background:new 0 0 24 24;" xml:space="preserve">
<style type="text/css">
	.st0{opacity:0.11;fill:#FFFFFF;enable-background:new    ;}
	.st1{fill:#FDF8EB;}
</style>
<g id="Layer_2_1_">
	<g id="Twitter">
		<circle id="Icon_BG" class="st0" cx="12" cy="12" r="12"/>
		<path id="Twitter-2" class="st1" d="M16.6,9.1c-0.3,0.1-0.7,0.2-1.1,0.3c0.4-0.2,0.7-0.6,0.8-1.1c-0.4,0.2-0.8,0.4-1.2,0.5
			C14.4,8,13.2,8,12.5,8.7c-0.5,0.5-0.7,1.1-0.5,1.8c-1.5-0.1-3-0.8-3.9-2c-0.5,0.9-0.2,2,0.6,2.5c-0.3,0-0.6-0.1-0.9-0.2l0,0
			c0,0.9,0.6,1.7,1.5,1.9c-0.2,0-0.3,0.1-0.5,0.1c-0.1,0-0.2,0-0.4,0c0.3,0.8,1,1.3,1.8,1.3c-0.8,0.6-1.8,0.9-2.8,0.8
			c2.5,1.6,5.9,0.8,7.5-1.7c0.5-0.9,0.8-1.9,0.8-2.9c0-0.1,0-0.2,0-0.2C16,9.8,16.4,9.5,16.6,9.1z"/>
	</g>
</g>
</svg>
