<?xml version="1.0" encoding="UTF-8"?>
<svg viewBox="5 -44 38 40" xmlns="http://www.w3.org/2000/svg">
<path d="m15-24.169c3.4505-0.61561 6-2.949 6-7.6086 0-5.5228-3.5817-12.222-8-12.222-4.4183 0-8 6.6994-8 12.222 0 4.6596 2.5495 6.993 6 7.6086v2.2971c-1.7257 0.44664-3 2.0108-3 3.8668v10.01c0 2.2063 1.7878 3.9948 4.0098 3.9948h1.9805c2.2145 0 4.0098-1.7917 4.0098-3.9948v-10.01c0-1.8597-1.2702-3.4226-3-3.8677v-2.2962zm15 6.1639v10.01c0 2.2063 1.7878 3.9948 4.0098 3.9948h1.9805c2.2145 0 4.0098-1.7917 4.0098-3.9948v-10.01c0-1.8597-1.2702-3.4226-3-3.8677v-2.4032c3.486-0.98535 6-4.4889 6-8.5789v-9.1449c0-1.1046-0.89543-2-2-2s-2 0.89543-2 2v9.1449c0 0.29273-0.021183 0.57837-0.061646 0.85507h-1.9384v-10.003c0-1.1029-0.88773-1.997-2-1.997-1.1046 0-2 0.89498-2 1.997v10.003h-1.938c-0.040678-0.27678-0.061983-0.56242-0.061983-0.85507v-9.1449c0-1.1046-0.89543-2-2-2s-2 0.89543-2 2v9.1449c0 4.0855 2.5171 7.5912 6 8.5782v2.4049c-1.7257 0.44664-3 2.0108-3 3.8668zm-14.755-19.867c1.0812 1.7664 1.7548 4.1037 1.7548 6.0939 0 2.752-1.1841 3.7778-4 3.7778s-4-1.0258-4-3.7778c0-1.9902 0.67357-4.3275 1.7548-6.0939 0.89513-1.4624 1.7872-2.1283 2.2452-2.1283s1.3501 0.66585 2.2452 2.1283zm-3.2452 19.867c0 0.0078316 0.0026236 0.0052166 0.0097628 0.0052166h1.9805c0.012459 0 0.0097628-0.0026894 0.0097628-0.0052166v10.01c0-0.0078325-0.0026236-0.0052166-0.0097628-0.0052166h-1.9805c-0.012459 0-0.0097628 0.0026889-0.0097628 0.0052166v-10.01zm22 0c0 0.0078316 0.0026245 0.0052166 0.0097618 0.0052166h1.9805c0.012459 0 0.0097618-0.0026894 0.0097618-0.0052166v10.01c0-0.0078325-0.0026245-0.0052166-0.0097618-0.0052166h-1.9805c-0.012459 0-0.0097618 0.0026889-0.0097618 0.0052166v-10.01z"></path>
</svg>
